# xmcd
#
# Track frame offsets:
#	150
#	19960
#	40596
#	58776
#	72469
#	86118
#	103551
#	124481
#	143564
#	157967
#	174196
#	187014
#
# Disc length: 2740 seconds
#
# Revision: 1
# Processed by: cddbd v1.5.2PL0 Copyright (c) Steve Scherf et al.
# Submitted via: audiograbber 1.83.01
#
DISCID=a30ab20c
DTITLE=Thicke, Robin - Sex Therapy: the session
DYEAR=2009
DGENRE=R&B
TTITLE0=Mrs. Sexy
TTITLE1=Sex Therapy
TTITLE2=Meiple with Jay ZTrack  3
TTITLE3=Make U Love Me
TTITLE4=It's In The Morning with Snoop Dogg
TTITLE5=Shakin' It For Daddy with Nicki Minaj
TTITLE6=Elevatas with Kid Cudi
TTITLE7=Rollacoasta with Estelle
TTITLE8=Million Dollar Baby
TTITLE9=2 Luv Birds
TTITLE10=Just Right
TTITLE11=Diamonds with Game
EXTD=
EXTT0=
EXTT1=
EXTT2=
EXTT3=
EXTT4=
EXTT5=
EXTT6=
EXTT7=
EXTT8=
EXTT9=
EXTT10=
EXTT11=
PLAYORDER=
